<?xml version="1.0" standalone="no"?>
<!DOCTYPE svg PUBLIC "-//W3C//DTD SVG 20010904//EN"
 "http://www.w3.org/TR/2001/REC-SVG-20010904/DTD/svg10.dtd">
<svg version="1.0" xmlns="http://www.w3.org/2000/svg"
 width="500.000000pt" height="500.000000pt" viewBox="0 0 500.000000 500.000000"
 preserveAspectRatio="xMidYMid meet">

<g transform="translate(0.000000,500.000000) scale(0.100000,-0.100000)"
fill="#000000" stroke="none">
<path d="M4225 4984 c-372 -37 -767 -196 -1065 -427 -263 -204 -587 -550 -879
-940 l-101 -134 -56 13 c-106 24 -275 37 -414 31 -349 -15 -672 -129 -950
-336 -97 -72 -239 -209 -296 -284 -53 -72 -57 -106 -15 -148 l29 -29 149 6
c248 11 477 -23 728 -108 97 -32 225 -87 244 -104 2 -2 -9 -34 -24 -71 -32
-80 -28 -113 17 -160 17 -18 30 -34 27 -36 -2 -2 -29 -20 -59 -42 -30 -21 -83
-63 -118 -93 -212 -186 -333 -477 -336 -809 -1 -115 0 -122 23 -147 23 -25 30
-26 127 -26 397 0 710 151 918 443 26 37 51 67 55 67 4 0 16 -10 27 -21 10
-12 34 -28 52 -36 30 -12 38 -11 108 16 l76 30 34 -76 c121 -266 174 -522 174
-854 0 -180 2 -198 20 -221 24 -32 65 -40 107 -23 39 16 202 172 277 264 174
214 298 474 356 746 40 188 38 498 -5 710 -6 29 -1 34 102 110 323 239 716
595 894 810 268 324 426 669 484 1061 29 194 20 475 -21 654 -24 103 -36 112
-188 141 -98 19 -403 33 -501 23z m-698 -1255 c76 -29 144 -97 168 -169 48
-145 -8 -294 -137 -365 -47 -27 -63 -30 -138 -30 -71 0 -93 4 -133 25 -174 88
-216 316 -87 464 78 89 209 119 327 75z m353 -933 c0 -2 -8 -10 -17 -17 -16
-13 -17 -12 -4 4 13 16 21 21 21 13z m-1833 -1073 c-172 -253 -363 -362 -694
-399 l-63 -7 0 53 c0 78 37 244 75 338 59 144 154 255 323 374 l67 47 170
-169 169 -169 -47 -68z"/>
<path d="M692 2098 c-206 -206 -370 -377 -378 -395 -29 -67 27 -132 101 -119
23 5 116 92 397 374 233 233 369 377 373 393 8 31 -16 83 -44 99 -11 5 -34 10
-53 10 -29 0 -66 -33 -396 -362z"/>
<path d="M393 1208 c-253 -253 -374 -381 -378 -399 -14 -64 52 -121 117 -100
40 13 742 711 757 754 8 21 7 36 -3 62 -17 39 -42 55 -88 55 -29 0 -66 -34
-405 -372z"/>
<path d="M1958 802 c-345 -344 -378 -380 -378 -410 0 -24 9 -42 29 -63 33 -32
67 -37 109 -15 15 8 188 176 385 373 357 359 357 359 357 402 0 56 -33 91 -87
91 -36 0 -52 -14 -415 -378z"/>
<path d="M805 961 c-16 -10 -188 -178 -382 -372 -239 -241 -354 -363 -359
-383 -16 -66 51 -126 116 -104 14 5 191 174 393 376 362 362 367 368 367 408
0 72 -75 114 -135 75z"/>
<path d="M1092 528 c-206 -206 -370 -377 -378 -395 -12 -29 -12 -38 0 -67 17
-40 42 -56 88 -56 29 0 66 33 396 362 200 200 370 376 378 391 32 59 -14 127
-85 127 -33 0 -56 -21 -399 -362z"/>
</g>
</svg>
