<?xml version="1.0" standalone="no"?>
<!DOCTYPE svg PUBLIC "-//W3C//DTD SVG 20010904//EN"
 "http://www.w3.org/TR/2001/REC-SVG-20010904/DTD/svg10.dtd">
<svg version="1.0" xmlns="http://www.w3.org/2000/svg"
 width="500.000000pt" height="500.000000pt" viewBox="0 0 500.000000 500.000000"
 preserveAspectRatio="xMidYMid meet">

<g transform="translate(0.000000,500.000000) scale(0.100000,-0.100000)"
fill="#000000" stroke="none">
<path d="M4179 4980 c-351 -44 -697 -182 -980 -391 -280 -206 -660 -611 -954
-1017 -55 -76 -62 -82 -90 -78 -16 2 -84 12 -150 21 -172 25 -396 17 -569 -19
-325 -69 -600 -214 -834 -440 -182 -177 -211 -231 -158 -293 l24 -28 219 -1
c232 0 322 -11 503 -58 171 -45 410 -136 410 -156 0 -4 -11 -33 -25 -64 -34
-78 -33 -108 10 -155 l35 -39 -63 -45 c-292 -208 -436 -491 -454 -887 l-6
-125 27 -33 28 -32 116 0 c255 0 489 69 667 195 71 51 186 168 246 254 23 33
46 61 49 61 3 0 19 -13 35 -30 42 -44 72 -46 155 -11 l71 30 21 -47 c57 -130
81 -195 108 -287 61 -214 81 -371 79 -617 -1 -173 0 -180 21 -203 27 -29 68
-39 101 -26 36 14 149 115 234 211 199 222 344 509 405 801 41 196 43 471 6
663 -9 44 -15 80 -13 81 1 1 49 37 107 80 325 243 680 562 868 780 372 433
561 970 522 1484 -16 217 -47 348 -87 369 -10 6 -68 20 -128 33 -121 24 -431
35 -556 19z m420 -185 c68 -9 127 -18 132 -20 32 -20 47 -454 21 -605 -15 -84
-69 -301 -77 -309 -3 -3 -197 186 -430 419 l-425 425 38 16 c70 30 256 67 412
82 89 9 216 6 329 -8z m-1075 -1065 c69 -26 130 -85 163 -157 22 -48 25 -65
21 -132 -8 -125 -74 -219 -184 -261 -212 -79 -435 104 -393 323 35 187 218
292 393 227z m-1595 -1774 l164 -164 -54 -78 c-71 -103 -179 -212 -256 -258
-89 -53 -208 -94 -340 -116 -159 -28 -153 -29 -153 24 0 158 76 385 171 511
55 74 260 243 294 245 6 0 84 -74 174 -164z"/>
<path d="M680 2085 c-372 -372 -375 -375 -375 -416 0 -53 38 -89 93 -89 35 0
55 18 411 375 368 367 376 375 376 414 0 56 -34 91 -89 91 -41 0 -45 -4 -416
-375z"/>
<path d="M403 1222 c-199 -196 -369 -369 -379 -384 -11 -19 -14 -39 -10 -62 9
-48 39 -71 92 -71 l44 0 361 360 c198 198 367 373 375 389 32 58 -12 126 -80
126 -40 -1 -47 -7 -403 -358z"/>
<path d="M2308 1161 c-13 -11 -183 -181 -376 -379 -313 -320 -352 -364 -352
-392 0 -46 47 -90 96 -90 37 0 52 13 402 363 200 199 370 376 377 392 28 64
-14 125 -85 125 -22 0 -48 -8 -62 -19z"/>
<path d="M820 973 c-8 -3 -180 -170 -383 -372 -388 -387 -396 -397 -368 -457
13 -30 72 -57 104 -49 31 8 763 743 770 773 16 68 -55 129 -123 105z"/>
<path d="M1080 515 c-372 -372 -375 -375 -375 -416 0 -53 38 -89 93 -89 35 0
54 18 409 373 415 414 413 410 358 475 -22 27 -34 32 -68 32 -42 0 -44 -2
-417 -375z"/>
</g>
</svg>
